<svg width="96" height="36" viewBox="0 0 96 36" fill="none" xmlns="http://www.w3.org/2000/svg">
<path d="M50.3011 4.43027V24.7042H45.6162V4.43027H50.3011Z" fill="#19191B"/>
<path d="M67.1998 16.6494C67.1998 17.033 67.1541 17.4531 67.0628 17.9097H56.46C56.5148 19.0604 56.8071 19.8915 57.3367 20.4029C57.8664 20.896 58.5422 21.1426 59.3641 21.1426C60.0582 21.1426 60.6335 20.9691 61.0902 20.622C61.5468 20.275 61.8482 19.8275 61.9943 19.2796H66.9532C66.7523 20.3572 66.3139 21.3252 65.6381 22.1837C64.9623 23.0239 64.1039 23.6905 63.0628 24.1837C62.0217 24.6586 60.8619 24.896 59.5833 24.896C58.0856 24.896 56.7523 24.5855 55.5833 23.9645C54.4326 23.3252 53.5285 22.412 52.871 21.2248C52.2135 20.0376 51.8847 18.6494 51.8847 17.0604C51.8847 15.4531 52.2043 14.065 52.8436 12.896C53.5011 11.7088 54.4144 10.8047 55.5833 10.1837C56.7523 9.54442 58.0856 9.22479 59.5833 9.22479C61.0993 9.22479 62.4326 9.53529 63.5833 10.1563C64.734 10.7773 65.6198 11.654 66.2409 12.7864C66.8801 13.9006 67.1998 15.1883 67.1998 16.6494ZM62.46 15.9371C62.4783 14.9326 62.2043 14.1837 61.6381 13.6905C61.0902 13.1791 60.4052 12.9234 59.5833 12.9234C58.7249 12.9234 58.0125 13.1791 57.4463 13.6905C56.8801 14.202 56.5605 14.9508 56.4874 15.9371H62.46Z" fill="#19191B"/>
<path d="M74.3471 9.22479C76.2832 9.22479 77.8265 9.70881 78.9772 10.6768C80.1462 11.6449 80.8768 12.9234 81.169 14.5125H76.7854C76.6576 13.8915 76.3653 13.4074 75.9087 13.0604C75.4704 12.6951 74.9133 12.5125 74.2375 12.5125C73.7078 12.5125 73.306 12.6312 73.032 12.8686C72.758 13.0878 72.6211 13.4074 72.6211 13.8275C72.6211 14.3024 72.8676 14.6586 73.3608 14.896C73.8722 15.1335 74.6667 15.3709 75.7443 15.6083C76.9133 15.8823 77.8722 16.1654 78.6211 16.4577C79.3699 16.7316 80.0183 17.1883 80.5663 17.8275C81.1142 18.4668 81.3882 19.3252 81.3882 20.4029C81.3882 21.2796 81.1507 22.0558 80.6758 22.7316C80.201 23.4074 79.516 23.9371 78.6211 24.3207C77.7261 24.7042 76.6667 24.896 75.443 24.896C73.379 24.896 71.7261 24.4394 70.4841 23.5262C69.2421 22.6129 68.4841 21.307 68.2101 19.6083H72.7306C72.8037 20.2659 73.0777 20.7682 73.5526 21.1152C74.0457 21.4622 74.6759 21.6357 75.443 21.6357C75.9727 21.6357 76.3745 21.517 76.6485 21.2796C76.9224 21.0239 77.0594 20.6951 77.0594 20.2933C77.0594 19.7636 76.8037 19.3892 76.2923 19.17C75.7991 18.9326 74.9864 18.686 73.8539 18.4303C72.7215 18.1928 71.79 17.9371 71.0594 17.6631C70.3288 17.3892 69.6987 16.9508 69.169 16.3481C68.6393 15.7271 68.3745 14.8869 68.3745 13.8275C68.3745 12.4577 68.895 11.3526 69.9361 10.5125C70.9772 9.65401 72.4475 9.22479 74.3471 9.22479Z" fill="#19191B"/>
<path d="M88.6875 9.22479C90.6236 9.22479 92.1669 9.70881 93.3176 10.6768C94.4866 11.6449 95.2172 12.9234 95.5094 14.5125H91.1258C90.998 13.8915 90.7057 13.4074 90.2491 13.0604C89.8108 12.6951 89.2537 12.5125 88.5779 12.5125C88.0482 12.5125 87.6464 12.6312 87.3724 12.8686C87.0984 13.0878 86.9614 13.4074 86.9614 13.8275C86.9614 14.3024 87.208 14.6586 87.7012 14.896C88.2126 15.1335 89.0071 15.3709 90.0847 15.6083C91.2537 15.8823 92.2126 16.1654 92.9614 16.4577C93.7103 16.7316 94.3587 17.1883 94.9067 17.8275C95.4546 18.4668 95.7286 19.3252 95.7286 20.4029C95.7286 21.2796 95.4911 22.0558 95.0162 22.7316C94.5414 23.4074 93.8564 23.9371 92.9614 24.3207C92.0665 24.7042 91.0071 24.896 89.7834 24.896C87.7194 24.896 86.0665 24.4394 84.8245 23.5262C83.5825 22.6129 82.8245 21.307 82.5505 19.6083H87.071C87.1441 20.2659 87.4181 20.7682 87.893 21.1152C88.3861 21.4622 89.0162 21.6357 89.7834 21.6357C90.313 21.6357 90.7149 21.517 90.9888 21.2796C91.2628 21.0239 91.3998 20.6951 91.3998 20.2933C91.3998 19.7636 91.1441 19.3892 90.6327 19.17C90.1395 18.9326 89.3267 18.686 88.1943 18.4303C87.0619 18.1928 86.1304 17.9371 85.3998 17.6631C84.6692 17.3892 84.0391 16.9508 83.5094 16.3481C82.9797 15.7271 82.7149 14.8869 82.7149 13.8275C82.7149 12.4577 83.2354 11.3526 84.2765 10.5125C85.3176 9.65401 86.7879 9.22479 88.6875 9.22479Z" fill="#19191B"/>
<path d="M30.9307 0L15.1885 9.09933L15.2231 15.2578L30.9653 6.15848L30.9307 0Z" fill="#FF7143"/>
<path d="M30.9658 10.0335L15.2236 19.1328L15.2582 25.2913L31.0004 16.2266L30.9658 10.0335Z" fill="#FF7143"/>
<path d="M31 26.26V20.067L15.5 29.0279L5.39732 23.1808L5.43192 3.11384L0.0691964 0L0 26.26L15.5 35.1864L31 26.26Z" fill="#5454D4"/>
</svg>
